<?xml version="1.0" encoding="UTF-8" standalone="no"?>
<!-- Created with Inkscape (http://www.inkscape.org/) -->

<svg
   width="512"
   height="512"
   viewBox="0 0 135.46666 135.46667"
   version="1.1"
   id="svg1"
   xml:space="preserve"
   xmlns="http://www.w3.org/2000/svg"
   xmlns:svg="http://www.w3.org/2000/svg"><defs
     id="defs1" /><path
     style="font-size:12px;display:inline;fill:#ff0000;fill-rule:evenodd;stroke-width:0.411088pt"
     id="path590"
     d="M 10.684551,133.50551 C 6.0034707,133.04898 2.8161011,126.56825 4.8672003,121.49922 13.350849,103.9537 52.071639,24.712178 61.373872,5.2768503 64.046303,0.67590994 70.351452,0.62805119 73.011059,5.2786491 81.524751,22.8035 120.08116,101.97685 129.55945,121.2911 c 2.00864,5.05747 -0.97718,11.946 -5.6879,12.36452 -16.99733,0.0206 -94.406488,-0.27112 -113.186999,-0.15003 z" /><path
     style="font-size:12px;display:inline;fill:#ffbb00;fill-opacity:1;fill-rule:evenodd;stroke:none;stroke-width:0.137029"
     id="path605"
     d="M 23.233237,118.21005 112.43724,117.90258 67.604654,24.086909 Z" /><path
     style="display:inline;fill:#000000;fill-opacity:1;fill-rule:evenodd;stroke:none;stroke-width:0.129317"
     d="m 68.696504,59.303906 c -2.72579,0.08353 -3.947716,2.963915 -4.042516,4.985168 -0.01672,0.356636 0.193423,1.044079 0.533784,1.44977 0.170181,0.202846 0.428318,0.678155 0.658332,0.767279 0.230015,0.08912 0.543915,0.502591 0.704593,0.657053 0.321361,0.308931 0.44471,0.301701 0.61563,0.695212 0.17092,0.393509 0.221944,1.475672 0.5409,1.941504 0.155942,0.227755 0.513698,-0.316482 0.772206,-0.08052 0.664015,0.606031 0.445663,0.242073 0.61563,0.470537 0.339933,0.456929 0.28508,0.318571 0.754412,0.445107 0.85091,0.09873 1.065816,-1.215626 1.94297,-1.51336 0.167373,0.187631 0.267914,0.392905 0.334505,0.606193 -0.05174,1.245791 -0.435332,2.825226 0,3.509967 0.824495,4.986993 0.362621,3.322223 0.740178,6.502752 -2.004894,0.518099 -3.456271,1.517555 -5.362738,0.309451 -1.514243,-0.959661 -1.38557,-2.399689 -3.192022,-1.110636 -0.323996,0.231318 -0.991439,0.430827 -0.665449,0.949561 0.521372,0.07125 1.989298,-0.192679 1.996347,0.953794 -1.968581,0.0086 -2.55788,-0.375451 -4.789811,-0.317938 -0.240869,0.293906 -0.02163,1.135358 -0.398557,1.267488 -2.629611,0.333833 -3.299775,-1.66767 -4.789811,-2.69182 0.08752,-1.110493 -0.173343,-2.641753 0.135224,-3.48877 0.337165,0.654832 0.277346,1.784302 0.665449,2.378135 0.71955,0.170318 0.791829,-0.430583 1.462565,-0.317938 -1.042213,-6.111935 -2.108521,-12.566389 -3.590578,-17.901661 -0.270661,-0.20692 -0.883608,0.239501 -1.330898,0.317927 1.134917,5.666252 1.913931,11.668719 1.729455,18.69438 -0.337428,1.287787 -1.745509,1.304798 -1.864681,2.852905 -2.659801,-0.105377 -0.501324,0.08675 -3.167111,-0.02542 v 2.534977 h 2.010582 c -0.0024,9.084884 -0.09134,21.410287 -0.0036,30.758827 0.648391,-0.0727 1.486692,0 2.145806,0 0,-7.93622 -2.24e-4,-22.24226 0.07829,-30.576546 h 15.429912 c 0.548373,0.125005 0.249007,-0.760559 0.797115,-0.635866 1.074401,0.727551 2.952383,0.499965 3.85747,1.428574 v 1.267489 c -3.173326,1.148993 -6.301307,2.606504 -9.177505,4.120393 -0.86173,0.453612 -2.368251,1.030878 -2.793465,1.74226 -0.578031,0.967902 -0.238553,2.125439 -0.398557,3.484528 -0.799799,3.781032 -3.658191,12.501068 -3.658191,12.501068 l 0.56581,0.35609 0.565809,0.35608 c 0,0 -1.327221,1.36826 -2.626211,1.88639 -1.168612,0.46614 -2.443708,1.76576 -1.505268,1.84401 1.79034,0.14927 4.056664,0.12597 5.757738,-0.65706 0.184208,0.41432 -0.154605,0.47874 0.227747,0.65706 0.382352,0.17833 1.851022,0.0185 2.398465,0 0.272399,-1.36065 -0.164019,-1.84118 -0.128109,-3.00127 0.04682,-1.502 0.83949,-3.13515 1.195673,-4.75202 0.371746,-1.68674 0.673472,-3.3023 1.199232,-4.75202 L 65.51872,99.397249 c 0.495171,2.905931 0.93486,5.826351 1.384277,8.741001 0.890458,0.35648 1.730934,0.15258 2.629769,0.60618 0.01689,0.44744 0.281125,0.84388 0.266892,1.29716 -1.541909,2.58335 -2.679591,2.92074 -2.679591,2.92074 1.137845,-0.33573 -0.612019,0.10976 -0.530223,1.02586 0.0818,0.9161 2.807697,-0.31793 2.807697,-0.31793 0.501422,-0.60619 1.062544,-0.54461 1.558646,-1.20814 0.222782,0.56396 0.112231,0.45324 0.459055,0.34761 0.346823,-0.10563 1.153528,-0.20935 1.434096,-0.38577 0.15027,-1.85045 -0.09275,-2.83712 -0.693918,-4.37049 l 0.377206,-0.009 c -1.040206,-4.05315 -2.100066,-8.234501 -2.910895,-12.441721 0,0 5.231851,-0.468334 6.789717,-0.105973 -0.178417,3.115202 0,7.463104 0,10.852064 -0.151206,3.27765 0.06424,5.48023 -1.266844,5.66766 -1.123874,0.15825 -3.804832,1.26094 -4.84319,1.56847 0.03737,0.53663 0.0645,0.64372 -0.01423,1.31836 h 1.284638 c 0.373847,-2e-5 0.313324,-0.45274 0.647656,-0.975 0.775685,-0.38065 3.545965,-0.6728 4.878776,-0.77575 2.146063,-0.41258 4.35591,0.37157 7.633094,0.78423 0.353388,0.13277 0.640541,0.96652 0.640541,0.96652 l 1.34157,-0.017 c 0,0 0.101098,-0.67127 0.06406,-1.28444 -2.250948,-0.75132 -5.117202,-0.76364 -7.312823,-1.58118 -1.38481,-0.003 -1.387835,-1.08338 -1.387835,-5.36669 v -4.87918 c 0.08339,-1.90777 0.0019,-4.129677 0.06761,-6.040704 1.406909,-0.0139 3.079089,0.628882 4.124361,-0.156842 1.427912,-1.073365 1.254866,-1.309362 1.55153,-3.887251 0.296659,-2.577881 0.745148,-7.942781 0.975044,-10.534127 0.08007,-0.901676 0.528462,-5.067279 0.63698,-6.049178 -0.127589,-0.02182 -0.261609,-0.06748 -0.505315,-0.12717 -0.660572,4.279127 -0.986823,9.986789 -1.505267,14.459519 -0.301653,2.60347 -0.52189,5.679539 -2.75076,5.027561 1.580479,-2.020725 2.243971,-5.757503 1.999905,-9.720222 0.264848,-3.694574 -0.406179,-5.436947 -0.946574,-9.465883 -0.186204,-1.389356 -2.143337,-5.117827 -2.764995,-6.002551 -0.364069,-0.51859 -2.021988,-2.043527 -2.708059,-2.662147 l 0.07827,-0.118695 C 75.350313,66.151349 74.56537,65.613763 73.749653,65.187698 73.410099,62.396171 71.735121,60.585721 70.369028,59.566674 69.758833,59.367051 69.201284,59.28838 68.696509,59.30385 Z"
     id="path4118" /><path
     style="display:inline;fill:#898989"
     d="M 59.064648,127.33223 C 23.502433,121.84104 0.70938035,87.489167 9.5027392,52.63648 15.182499,30.124616 34.218934,12.530335 57.325029,8.4370895 63.379906,7.3644679 72.452565,7.3618621 78.474965,8.4310148 108.22256,13.712086 129.38434,40.0323 128.11669,70.173504 c -0.48803,11.604126 -3.93782,22.022389 -10.48823,31.674126 -3.20744,4.72602 -11.07198,12.55044 -15.74464,15.66432 -3.883151,2.58774 -10.534031,5.92691 -14.363271,7.21127 -6.413853,2.15128 -9.935681,2.69669 -18.279618,2.83089 -4.353188,0.07 -8.932515,-0.0298 -10.176283,-0.22188 z m 13.714876,-7.11893 c 1.738931,-0.19952 3.241488,-0.4424 3.339015,-0.53973 0.188195,-0.18782 -35.588761,-78.394196 -36.142671,-79.00581 -0.1827,-0.201733 -0.283199,15.459446 -0.229217,35.719758 l 0.09613,36.079002 3.392095,1.79128 c 9.295943,4.90897 19.949402,7.05645 29.544648,5.9555 z m 18.386338,-5.29176 C 106.71009,107.40352 117.3987,92.796887 120.18638,75.263256 120.91035,70.709672 120.6879,61.705535 119.7448,57.389331 117.39884,46.652852 112.74412,38.120076 105.06903,30.486543 102.77632,28.206253 99.609275,25.461589 98.03114,24.38729 95.001012,22.324561 89.487082,19.416137 86.838541,18.483546 L 85.259153,17.92742 v 8.377582 8.377582 l 2.513021,0.49851 c 5.364832,1.064226 10.71406,4.732637 12.865386,8.822865 0.86101,1.636996 1.00614,2.374129 1.00614,5.11017 0,2.736042 -0.14513,3.473174 -1.00614,5.110171 -2.015446,3.831885 -6.643054,7.205689 -11.797863,8.60135 -1.243768,0.33675 -4.252987,0.714943 -6.687154,0.84043 l -4.425758,0.228159 -0.09703,-24.024117 -0.09704,-24.024117 -1.696047,-0.337071 c -0.932826,-0.18539 -4.409722,-0.350458 -7.726436,-0.366818 -6.686891,-0.03299 -10.220288,0.492264 -16.381447,2.435151 -3.975677,1.253707 -11.320656,4.707308 -11.320656,5.32296 0,0.216042 8.353032,18.583795 18.562293,40.817229 l 18.562293,40.424424 0.09832,-15.853363 0.09831,-15.853364 h 3.764903 3.764903 v 2.821091 c 0,1.5516 0.06209,2.821092 0.137986,2.821092 0.07589,0 1.729538,-0.750799 3.674769,-1.668441 3.493119,-1.647844 8.384563,-3.221451 10.013642,-3.221451 0.894609,0 0.885131,-0.02803 1.589902,4.701819 0.18495,1.24128 0.30091,2.295405 0.25767,2.342499 -0.0432,0.04709 -1.594708,0.523492 -3.447721,1.058662 -4.642111,1.340692 -7.911201,3.021783 -10.247526,5.269671 l -1.978722,1.903821 -0.0012,8.06584 c -6.34e-4,4.436214 -0.112893,11.005774 -0.249464,14.599024 l -0.248312,6.53319 0.909038,-0.26082 c 0.499971,-0.14345 2.97344,-1.25928 5.496599,-2.47961 z M 32.493244,67.733333 c 0,-21.205204 -0.142721,-38.554917 -0.317158,-38.554917 -0.834826,0 -6.606719,6.76387 -9.173892,10.750548 -2.790062,4.332811 -5.649707,11.518782 -6.952344,17.470467 -0.992289,4.533717 -0.992289,16.134088 0,20.667804 1.533136,7.004823 4.156367,13.171971 8.115234,19.078705 2.232056,3.33029 7.310566,9.14231 7.988491,9.14231 0.199417,0 0.339669,-15.919691 0.339669,-38.554917 z M 89.503717,54.488647 c 4.690835,-2.089841 6.095846,-5.446582 3.486319,-8.329239 -1.236487,-1.365907 -4.368298,-3.069897 -6.69441,-3.64237 l -1.036473,-0.255083 v 6.852174 6.852174 l 1.036473,-0.255083 c 0.570061,-0.140296 2.013702,-0.690454 3.208091,-1.222573 z"
     id="path1" /></svg>
